<mxfile host="app.diagrams.net" modified="2023-08-06T19:54:02.272Z" agent="Mozilla/5.0 (Windows NT 10.0; Win64; x64; rv:112.0) Gecko/20100101 Firefox/112.0" etag="D0iU8wMsgqsTsYkv1TE_" version="21.6.6" type="device">
  <diagram name="Page-1" id="NLzLxhm8PYmnLrAIR1Z3">
    <mxGraphModel dx="840" dy="446" grid="1" gridSize="10" guides="1" tooltips="1" connect="1" arrows="1" fold="1" page="1" pageScale="1" pageWidth="850" pageHeight="1100" math="0" shadow="0">
      <root>
        <mxCell id="0" />
        <mxCell id="1" parent="0" />
        <mxCell id="V8QIglILROeMJGrw62xA-2" value="HW-131" style="whiteSpace=wrap;html=1;aspect=fixed;" vertex="1" parent="1">
          <mxGeometry x="143" y="200" width="50" height="50" as="geometry" />
        </mxCell>
        <mxCell id="V8QIglILROeMJGrw62xA-4" value="5V" style="text;html=1;strokeColor=none;fillColor=none;align=center;verticalAlign=middle;whiteSpace=wrap;rounded=0;" vertex="1" parent="1">
          <mxGeometry x="130" y="250" width="20" height="30" as="geometry" />
        </mxCell>
        <mxCell id="V8QIglILROeMJGrw62xA-5" value="" style="endArrow=none;html=1;rounded=0;entryX=0.133;entryY=1.033;entryDx=0;entryDy=0;entryPerimeter=0;exitX=-0.048;exitY=0.093;exitDx=0;exitDy=0;exitPerimeter=0;" edge="1" parent="1" source="V8QIglILROeMJGrw62xA-24">
          <mxGeometry width="50" height="50" relative="1" as="geometry">
            <mxPoint x="180" y="300" as="sourcePoint" />
            <mxPoint x="185.98000000000002" y="249.99999999999997" as="targetPoint" />
          </mxGeometry>
        </mxCell>
        <mxCell id="V8QIglILROeMJGrw62xA-6" value="GND" style="text;html=1;strokeColor=none;fillColor=none;align=center;verticalAlign=middle;whiteSpace=wrap;rounded=0;" vertex="1" parent="1">
          <mxGeometry x="158" y="250" width="25" height="30" as="geometry" />
        </mxCell>
        <mxCell id="V8QIglILROeMJGrw62xA-7" value="" style="endArrow=none;html=1;rounded=0;entryX=0.133;entryY=1.033;entryDx=0;entryDy=0;entryPerimeter=0;" edge="1" parent="1">
          <mxGeometry width="50" height="50" relative="1" as="geometry">
            <mxPoint x="150" y="290" as="sourcePoint" />
            <mxPoint x="149.98000000000002" y="250" as="targetPoint" />
          </mxGeometry>
        </mxCell>
        <mxCell id="V8QIglILROeMJGrw62xA-8" value="ESP32" style="rounded=0;whiteSpace=wrap;html=1;" vertex="1" parent="1">
          <mxGeometry x="233" y="150" width="120" height="60" as="geometry" />
        </mxCell>
        <mxCell id="V8QIglILROeMJGrw62xA-9" value="SainSmart 20X4 I2C" style="rounded=0;whiteSpace=wrap;html=1;" vertex="1" parent="1">
          <mxGeometry x="233" y="290.13" width="120" height="60" as="geometry" />
        </mxCell>
        <mxCell id="V8QIglILROeMJGrw62xA-11" value="" style="shape=partialRectangle;whiteSpace=wrap;html=1;bottom=0;right=0;fillColor=none;" vertex="1" parent="1">
          <mxGeometry x="102" y="160" width="130" height="120" as="geometry" />
        </mxCell>
        <mxCell id="V8QIglILROeMJGrw62xA-12" value="" style="endArrow=none;html=1;rounded=0;exitX=0;exitY=1;exitDx=0;exitDy=0;" edge="1" parent="1" source="V8QIglILROeMJGrw62xA-11">
          <mxGeometry width="50" height="50" relative="1" as="geometry">
            <mxPoint x="40" y="280" as="sourcePoint" />
            <mxPoint x="150" y="280" as="targetPoint" />
          </mxGeometry>
        </mxCell>
        <mxCell id="V8QIglILROeMJGrw62xA-13" value="VIN" style="text;html=1;strokeColor=none;fillColor=none;align=center;verticalAlign=middle;whiteSpace=wrap;rounded=0;" vertex="1" parent="1">
          <mxGeometry x="190" y="139" width="60" height="30" as="geometry" />
        </mxCell>
        <mxCell id="V8QIglILROeMJGrw62xA-15" value="" style="shape=partialRectangle;whiteSpace=wrap;html=1;bottom=0;right=0;fillColor=none;rotation=-180;" vertex="1" parent="1">
          <mxGeometry x="186" y="190" width="17" height="70" as="geometry" />
        </mxCell>
        <mxCell id="V8QIglILROeMJGrw62xA-19" value="" style="endArrow=none;html=1;rounded=0;exitX=0;exitY=1;exitDx=0;exitDy=0;entryX=0.002;entryY=0.657;entryDx=0;entryDy=0;entryPerimeter=0;" edge="1" parent="1" source="V8QIglILROeMJGrw62xA-15" target="V8QIglILROeMJGrw62xA-8">
          <mxGeometry width="50" height="50" relative="1" as="geometry">
            <mxPoint x="300" y="210" as="sourcePoint" />
            <mxPoint x="230" y="190" as="targetPoint" />
          </mxGeometry>
        </mxCell>
        <mxCell id="V8QIglILROeMJGrw62xA-20" value="GND" style="text;html=1;strokeColor=none;fillColor=none;align=center;verticalAlign=middle;whiteSpace=wrap;rounded=0;" vertex="1" parent="1">
          <mxGeometry x="189" y="167" width="60" height="30" as="geometry" />
        </mxCell>
        <mxCell id="V8QIglILROeMJGrw62xA-21" value="" style="shape=partialRectangle;whiteSpace=wrap;html=1;bottom=0;right=0;fillColor=none;rotation=-90;" vertex="1" parent="1">
          <mxGeometry x="173.66" y="266.57" width="35.86" height="83.56" as="geometry" />
        </mxCell>
        <mxCell id="V8QIglILROeMJGrw62xA-22" value="" style="endArrow=none;html=1;rounded=0;exitX=0.68;exitY=1;exitDx=0;exitDy=0;exitPerimeter=0;entryX=1;entryY=1;entryDx=0;entryDy=0;" edge="1" parent="1">
          <mxGeometry width="50" height="50" relative="1" as="geometry">
            <mxPoint x="185" y="306" as="sourcePoint" />
            <mxPoint x="233" y="306" as="targetPoint" />
          </mxGeometry>
        </mxCell>
        <mxCell id="V8QIglILROeMJGrw62xA-23" value="GND" style="text;html=1;strokeColor=none;fillColor=none;align=center;verticalAlign=middle;whiteSpace=wrap;rounded=0;" vertex="1" parent="1">
          <mxGeometry x="189" y="284" width="60" height="30" as="geometry" />
        </mxCell>
        <mxCell id="V8QIglILROeMJGrw62xA-24" value="VCC" style="text;html=1;strokeColor=none;fillColor=none;align=center;verticalAlign=middle;whiteSpace=wrap;rounded=0;" vertex="1" parent="1">
          <mxGeometry x="189" y="303" width="60" height="30" as="geometry" />
        </mxCell>
        <mxCell id="V8QIglILROeMJGrw62xA-25" value="" style="endArrow=none;html=1;rounded=0;exitX=0.39;exitY=-0.002;exitDx=0;exitDy=0;exitPerimeter=0;" edge="1" parent="1" source="V8QIglILROeMJGrw62xA-9">
          <mxGeometry width="50" height="50" relative="1" as="geometry">
            <mxPoint x="230" y="250" as="sourcePoint" />
            <mxPoint x="280" y="210" as="targetPoint" />
          </mxGeometry>
        </mxCell>
        <mxCell id="V8QIglILROeMJGrw62xA-26" value="D21" style="text;html=1;strokeColor=none;fillColor=none;align=center;verticalAlign=middle;whiteSpace=wrap;rounded=0;" vertex="1" parent="1">
          <mxGeometry x="258" y="201" width="21" height="30" as="geometry" />
        </mxCell>
        <mxCell id="V8QIglILROeMJGrw62xA-27" value="SDA" style="text;html=1;strokeColor=none;fillColor=none;align=center;verticalAlign=middle;whiteSpace=wrap;rounded=0;" vertex="1" parent="1">
          <mxGeometry x="252" y="267" width="26" height="30" as="geometry" />
        </mxCell>
        <mxCell id="V8QIglILROeMJGrw62xA-28" value="D22" style="text;html=1;strokeColor=none;fillColor=none;align=center;verticalAlign=middle;whiteSpace=wrap;rounded=0;" vertex="1" parent="1">
          <mxGeometry x="282" y="201" width="60" height="30" as="geometry" />
        </mxCell>
        <mxCell id="V8QIglILROeMJGrw62xA-29" value="SCL" style="text;html=1;strokeColor=none;fillColor=none;align=center;verticalAlign=middle;whiteSpace=wrap;rounded=0;" vertex="1" parent="1">
          <mxGeometry x="300.5" y="268" width="19" height="30" as="geometry" />
        </mxCell>
        <mxCell id="V8QIglILROeMJGrw62xA-30" value="" style="endArrow=none;html=1;rounded=0;exitX=0.75;exitY=0;exitDx=0;exitDy=0;" edge="1" parent="1" source="V8QIglILROeMJGrw62xA-9">
          <mxGeometry width="50" height="50" relative="1" as="geometry">
            <mxPoint x="324" y="280" as="sourcePoint" />
            <mxPoint x="325.5" y="210" as="targetPoint" />
          </mxGeometry>
        </mxCell>
        <mxCell id="V8QIglILROeMJGrw62xA-31" value="" style="pointerEvents=1;verticalLabelPosition=bottom;shadow=0;dashed=0;align=center;html=1;verticalAlign=top;shape=mxgraph.electrical.resistors.resistor_2;" vertex="1" parent="1">
          <mxGeometry x="325" y="223" width="100" height="20" as="geometry" />
        </mxCell>
        <mxCell id="V8QIglILROeMJGrw62xA-32" value="" style="pointerEvents=1;verticalLabelPosition=bottom;shadow=0;dashed=0;align=center;html=1;verticalAlign=top;shape=mxgraph.electrical.resistors.resistor_2;" vertex="1" parent="1">
          <mxGeometry x="353" y="267" width="100" height="20" as="geometry" />
        </mxCell>
        <mxCell id="V8QIglILROeMJGrw62xA-33" value="" style="endArrow=none;html=1;rounded=0;exitX=1;exitY=0.5;exitDx=0;exitDy=0;exitPerimeter=0;" edge="1" parent="1" source="V8QIglILROeMJGrw62xA-32">
          <mxGeometry width="50" height="50" relative="1" as="geometry">
            <mxPoint x="250" y="290" as="sourcePoint" />
            <mxPoint x="470" y="250" as="targetPoint" />
          </mxGeometry>
        </mxCell>
        <mxCell id="V8QIglILROeMJGrw62xA-34" value="" style="endArrow=none;html=1;rounded=0;exitX=1;exitY=0.5;exitDx=0;exitDy=0;exitPerimeter=0;" edge="1" parent="1" source="V8QIglILROeMJGrw62xA-31">
          <mxGeometry width="50" height="50" relative="1" as="geometry">
            <mxPoint x="250" y="290" as="sourcePoint" />
            <mxPoint x="470" y="250" as="targetPoint" />
          </mxGeometry>
        </mxCell>
        <mxCell id="V8QIglILROeMJGrw62xA-35" value="" style="endArrow=none;html=1;rounded=0;" edge="1" parent="1">
          <mxGeometry width="50" height="50" relative="1" as="geometry">
            <mxPoint x="470" y="360" as="sourcePoint" />
            <mxPoint x="470" y="250" as="targetPoint" />
          </mxGeometry>
        </mxCell>
        <mxCell id="V8QIglILROeMJGrw62xA-36" value="" style="endArrow=none;html=1;rounded=0;" edge="1" parent="1">
          <mxGeometry width="50" height="50" relative="1" as="geometry">
            <mxPoint x="470" y="360" as="sourcePoint" />
            <mxPoint x="150" y="360" as="targetPoint" />
          </mxGeometry>
        </mxCell>
        <mxCell id="V8QIglILROeMJGrw62xA-37" value="4.7kohm" style="text;html=1;strokeColor=none;fillColor=none;align=center;verticalAlign=middle;whiteSpace=wrap;rounded=0;fontSize=10;" vertex="1" parent="1">
          <mxGeometry x="390" y="245" width="30" height="30" as="geometry" />
        </mxCell>
        <mxCell id="V8QIglILROeMJGrw62xA-38" value="4.7kohm" style="text;html=1;strokeColor=none;fillColor=none;align=center;verticalAlign=middle;whiteSpace=wrap;rounded=0;fontSize=10;" vertex="1" parent="1">
          <mxGeometry x="360" y="201" width="30" height="30" as="geometry" />
        </mxCell>
        <mxCell id="V8QIglILROeMJGrw62xA-39" value="" style="endArrow=none;html=1;rounded=0;exitX=0;exitY=0;exitDx=0;exitDy=0;" edge="1" parent="1" source="V8QIglILROeMJGrw62xA-21">
          <mxGeometry width="50" height="50" relative="1" as="geometry">
            <mxPoint x="250" y="290" as="sourcePoint" />
            <mxPoint x="150" y="360" as="targetPoint" />
          </mxGeometry>
        </mxCell>
        <mxCell id="V8QIglILROeMJGrw62xA-40" value="" style="endArrow=none;html=1;rounded=0;entryX=0;entryY=0.5;entryDx=0;entryDy=0;entryPerimeter=0;exitX=1;exitY=0.25;exitDx=0;exitDy=0;" edge="1" parent="1" source="V8QIglILROeMJGrw62xA-27" target="V8QIglILROeMJGrw62xA-32">
          <mxGeometry width="50" height="50" relative="1" as="geometry">
            <mxPoint x="250" y="290" as="sourcePoint" />
            <mxPoint x="300" y="240" as="targetPoint" />
          </mxGeometry>
        </mxCell>
        <mxCell id="V8QIglILROeMJGrw62xA-41" value="" style="ellipse;whiteSpace=wrap;html=1;fillColor=#000000;" vertex="1" parent="1">
          <mxGeometry x="321" y="227" width="10" height="10" as="geometry" />
        </mxCell>
        <mxCell id="V8QIglILROeMJGrw62xA-45" value="" style="ellipse;whiteSpace=wrap;html=1;fillColor=#000000;" vertex="1" parent="1">
          <mxGeometry x="145" y="276.13" width="10" height="10" as="geometry" />
        </mxCell>
        <mxCell id="V8QIglILROeMJGrw62xA-46" value="" style="ellipse;whiteSpace=wrap;html=1;fillColor=#000000;" vertex="1" parent="1">
          <mxGeometry x="145" y="321" width="10" height="10" as="geometry" />
        </mxCell>
        <mxCell id="V8QIglILROeMJGrw62xA-47" value="" style="ellipse;whiteSpace=wrap;html=1;fillColor=#000000;" vertex="1" parent="1">
          <mxGeometry x="276" y="268" width="10" height="10" as="geometry" />
        </mxCell>
        <mxCell id="V8QIglILROeMJGrw62xA-48" value="" style="ellipse;whiteSpace=wrap;html=1;fillColor=#000000;" vertex="1" parent="1">
          <mxGeometry x="184" y="256" width="10" height="10" as="geometry" />
        </mxCell>
        <mxCell id="V8QIglILROeMJGrw62xA-49" value="" style="endArrow=none;html=1;rounded=0;" edge="1" parent="1">
          <mxGeometry width="50" height="50" relative="1" as="geometry">
            <mxPoint x="203" y="190" as="sourcePoint" />
            <mxPoint x="203" y="100" as="targetPoint" />
          </mxGeometry>
        </mxCell>
        <mxCell id="V8QIglILROeMJGrw62xA-50" value="" style="ellipse;whiteSpace=wrap;html=1;fillColor=#000000;" vertex="1" parent="1">
          <mxGeometry x="198.52" y="184" width="10" height="10" as="geometry" />
        </mxCell>
        <mxCell id="V8QIglILROeMJGrw62xA-52" value="" style="html=1;shape=mxgraph.electrical.electro-mechanical.pushbutton;aspect=fixed;elSwitchState=off;" vertex="1" parent="1">
          <mxGeometry x="203" y="84" width="75" height="20" as="geometry" />
        </mxCell>
        <mxCell id="V8QIglILROeMJGrw62xA-53" value="" style="endArrow=none;html=1;rounded=0;exitX=1;exitY=0.8;exitDx=0;exitDy=0;entryX=0.375;entryY=0;entryDx=0;entryDy=0;entryPerimeter=0;" edge="1" parent="1" source="V8QIglILROeMJGrw62xA-52" target="V8QIglILROeMJGrw62xA-8">
          <mxGeometry width="50" height="50" relative="1" as="geometry">
            <mxPoint x="290" y="200" as="sourcePoint" />
            <mxPoint x="340" y="150" as="targetPoint" />
          </mxGeometry>
        </mxCell>
        <mxCell id="V8QIglILROeMJGrw62xA-54" value="D13" style="text;html=1;strokeColor=none;fillColor=none;align=center;verticalAlign=middle;whiteSpace=wrap;rounded=0;" vertex="1" parent="1">
          <mxGeometry x="254.5" y="128" width="21" height="30" as="geometry" />
        </mxCell>
      </root>
    </mxGraphModel>
  </diagram>
</mxfile>
